<?xml version="1.0" standalone="no"?>
<!DOCTYPE svg PUBLIC "-//W3C//DTD SVG 20010904//EN"
 "http://www.w3.org/TR/2001/REC-SVG-20010904/DTD/svg10.dtd">
<svg version="1.0" xmlns="http://www.w3.org/2000/svg"
 width="859.000000pt" height="1280.000000pt" viewBox="0 0 859.000000 1280.000000"
 preserveAspectRatio="xMidYMid meet">
<metadata>
Created by potrace 1.15, written by Peter Selinger 2001-2017
</metadata>
<g transform="translate(0.000000,1280.000000) scale(0.100000,-0.100000)"
fill="#9e9e9e" stroke="none">
<path d="M3845 12794 c-566 -53 -1005 -219 -1445 -548 -132 -98 -397 -365
-503 -507 -221 -296 -369 -604 -457 -953 -76 -302 -74 -266 -80 -1366 l-5
-985 -480 -5 c-536 -6 -528 -5 -641 -78 -111 -72 -185 -176 -219 -307 -13 -53
-15 -477 -15 -3830 0 -4131 -5 -3815 58 -3943 35 -74 140 -179 214 -214 128
-63 -196 -58 4023 -58 4219 0 3895 -5 4023 58 74 35 179 140 214 214 63 128
58 -188 58 3943 0 3353 -2 3777 -15 3830 -34 131 -108 235 -219 307 -113 73
-106 72 -639 78 l-477 5 0 805 c0 1077 -10 1243 -96 1569 -88 336 -236 642
-451 930 -106 142 -371 409 -503 507 -334 250 -695 416 -1069 493 -243 50
-282 53 -771 56 -256 1 -483 1 -505 -1z m1025 -398 c252 -41 472 -111 695
-221 673 -332 1145 -966 1269 -1705 31 -184 36 -342 36 -1188 l0 -852 -242 2
-243 3 -5 900 c-6 979 -4 936 -66 1164 -182 669 -734 1193 -1415 1345 -172 38
-280 46 -604 46 -324 0 -432 -8 -604 -46 -682 -152 -1233 -676 -1415 -1346
-62 -227 -60 -184 -66 -1163 l-5 -900 -240 0 -240 0 -3 825 c-3 1012 2 1110
79 1414 78 311 234 618 446 881 89 111 250 271 359 357 316 251 725 427 1119
482 169 24 163 24 615 21 344 -2 445 -5 530 -19z m-118 -800 c346 -66 641
-221 883 -463 249 -249 405 -553 465 -906 19 -113 20 -163 20 -958 l0 -839
-1825 0 -1825 0 0 839 c0 805 1 843 21 962 103 609 534 1114 1113 1304 224 73
319 84 726 81 263 -2 354 -7 422 -20z m3086 -3561 c34 -8 86 -27 114 -41 67
-34 158 -125 192 -192 60 -118 56 134 56 -3585 0 -3782 5 -3484 -66 -3604 -62
-103 -138 -165 -249 -203 -58 -20 -82 -20 -3590 -20 -3508 0 -3532 0 -3590 20
-111 38 -187 100 -249 203 -71 120 -66 -178 -66 3604 0 3719 -4 3467 56 3585
34 67 126 158 192 192 114 58 -130 54 3652 55 3042 1 3493 -1 3548 -14z"/>
<path d="M2256 5980 c-16 -5 -40 -19 -53 -32 -81 -76 -68 -196 27 -252 35 -21
35 -21 2065 -21 2030 0 2030 0 2065 21 104 61 108 193 7 268 l-28 21 -2027 2
c-1122 1 -2040 -2 -2056 -7z"/>
<path d="M2232 4333 c-105 -51 -109 -209 -7 -269 l42 -24 2028 0 2028 0 42 24
c103 61 97 219 -9 270 -31 15 -211 16 -2063 16 -1848 0 -2031 -2 -2061 -17z"/>
<path d="M2256 2640 c-16 -5 -40 -19 -53 -32 -81 -76 -68 -196 27 -252 35 -21
35 -21 2065 -21 2030 0 2030 0 2065 21 104 61 108 193 7 268 l-28 21 -2027 2
c-1122 1 -2040 -2 -2056 -7z"/>
</g>
</svg>
